<svg width="25" height="25" viewBox="0 0 25 25" fill="none" xmlns="http://www.w3.org/2000/svg">
<g clip-path="url(#clip0_6731_345)">
<path d="M20.0874 10.3105C20.3683 10.3105 20.596 10.0828 20.596 9.8019V8.17045C20.596 7.88955 20.3683 7.66187 20.0874 7.66187L19.3636 7.66627L16.9883 10.3105H20.0874Z" fill="#666666"/>
<path d="M4.84257 10.3103H7.96608L5.54964 7.66174H4.84257C4.56167 7.66174 4.33398 7.88943 4.33398 8.17033V9.80165C4.33398 10.0826 4.56167 10.3103 4.84257 10.3103Z" fill="#666666"/>
<path d="M12.7573 12.9331L17.4705 7.66187H7.46094L12.2516 12.9351C12.3874 13.0846 12.6227 13.0836 12.7573 12.9331Z" fill="#666666"/>
<path d="M14.0849 20.3511H13.2093V14.4324C12.9993 14.5537 12.7593 14.6199 12.5117 14.6209C12.5098 14.6209 12.508 14.6209 12.5061 14.6209C12.2567 14.6209 12.0146 14.5546 11.8029 14.4324V20.3511H10.8477C10.4594 20.3511 10.1445 20.6659 10.1445 21.0542C10.1445 21.4426 10.4594 21.7574 10.8477 21.7574H14.0849C14.4733 21.7574 14.7881 21.4426 14.7881 21.0542C14.7881 20.6659 14.4732 20.3511 14.0849 20.3511Z" fill="#666666"/>
<path d="M6.39649 12.2667H1.87315V3.93157C1.87315 3.54323 1.55831 3.22839 1.16997 3.22839C0.781632 3.22839 0.466797 3.54323 0.466797 3.93157V21.1105C0.466797 21.4988 0.781632 21.8137 1.16997 21.8137C1.55831 21.8137 1.87315 21.4988 1.87315 21.1105V15.8581H6.98585V21.1105C6.98585 21.4988 7.30068 21.8137 7.68902 21.8137C8.07736 21.8137 8.3922 21.4988 8.3922 21.1105V14.2624C8.3922 13.162 7.49691 12.2667 6.39649 12.2667Z" fill="#666666"/>
<path d="M23.7639 3.22839C23.3756 3.22839 23.0607 3.54323 23.0607 3.93157V12.2667H18.6422C17.5417 12.2667 16.6465 13.162 16.6465 14.2624V21.1105C16.6465 21.4988 16.9613 21.8137 17.3497 21.8137C17.738 21.8137 18.0528 21.4988 18.0528 21.1105V15.857H23.0608V21.1105C23.0608 21.4988 23.3756 21.8137 23.764 21.8137C24.1523 21.8137 24.4671 21.4988 24.4671 21.1105V3.93157C24.4671 3.54323 24.1523 3.22839 23.7639 3.22839Z" fill="#666666"/>
</g>
<defs>
<clipPath id="clip0_6731_345">
<rect width="24" height="24" fill="white" transform="translate(0.466797 0.520996)"/>
</clipPath>
</defs>
</svg>
