<svg width="25" height="25" viewBox="0 0 25 25" fill="none" xmlns="http://www.w3.org/2000/svg">
<g clip-path="url(#clip0_6731_379)">
<path d="M24.0918 8.05127H0.841797C0.634338 8.05127 0.466797 7.88373 0.466797 7.67627V6.17554C0.466797 5.96808 0.634338 5.80054 0.841797 5.80054H24.0918C24.2993 5.80054 24.4668 5.96808 24.4668 6.17554V7.67627C24.4668 7.88373 24.2993 8.05127 24.0918 8.05127ZM1.2168 7.30127H23.7168V6.55054H1.2168V7.30127Z" fill="#666666"/>
<path d="M1.2168 19.6831C1.00934 19.6831 0.841797 19.5156 0.841797 19.3081V7.74316C0.841797 7.53571 1.00934 7.36816 1.2168 7.36816C1.42426 7.36816 1.5918 7.53571 1.5918 7.74316V19.3081C1.5918 19.5156 1.42426 19.6831 1.2168 19.6831Z" fill="#666666"/>
<path d="M2.3418 19.6831C2.13434 19.6831 1.9668 19.5156 1.9668 19.3081V7.74316C1.9668 7.53571 2.13434 7.36816 2.3418 7.36816C2.54926 7.36816 2.7168 7.53571 2.7168 7.74316V19.3081C2.7168 19.5156 2.54926 19.6831 2.3418 19.6831Z" fill="#666666"/>
<path d="M22.5918 19.6831C22.3843 19.6831 22.2168 19.5156 22.2168 19.3081V7.74316C22.2168 7.53571 22.3843 7.36816 22.5918 7.36816C22.7993 7.36816 22.9668 7.53571 22.9668 7.74316V19.3081C22.9668 19.5156 22.7993 19.6831 22.5918 19.6831Z" fill="#666666"/>
<path d="M23.7168 19.6831C23.5093 19.6831 23.3418 19.5156 23.3418 19.3081V7.74316C23.3418 7.53571 23.5093 7.36816 23.7168 7.36816C23.9243 7.36816 24.0918 7.53571 24.0918 7.74316V19.3081C24.0918 19.5156 23.9243 19.6831 23.7168 19.6831Z" fill="#666666"/>
<path d="M2.3418 19.6831H1.2168C1.00934 19.6831 0.841797 19.5156 0.841797 19.3081C0.841797 19.1006 1.00934 18.9331 1.2168 18.9331H2.3418C2.54926 18.9331 2.7168 19.1006 2.7168 19.3081C2.7168 19.5156 2.54926 19.6831 2.3418 19.6831Z" fill="#666666"/>
<path d="M23.7168 19.6831H22.5918C22.3843 19.6831 22.2168 19.5156 22.2168 19.3081C22.2168 19.1006 22.3843 18.9331 22.5918 18.9331H23.7168C23.9243 18.9331 24.0918 19.1006 24.0918 19.3081C24.0918 19.5156 23.9243 19.6831 23.7168 19.6831Z" fill="#666666"/>
<path d="M22.5918 13.3059H2.3418C2.13434 13.3059 1.9668 13.1382 1.9668 12.9309C1.9668 12.7234 2.13434 12.5559 2.3418 12.5559H22.5918C22.7993 12.5559 22.9668 12.7234 22.9668 12.9309C22.9668 13.1382 22.7993 13.3059 22.5918 13.3059Z" fill="#666666"/>
<path d="M22.5918 14.4316H2.3418C2.13434 14.4316 1.9668 14.2639 1.9668 14.0566C1.9668 13.8492 2.13434 13.6816 2.3418 13.6816H22.5918C22.7993 13.6816 22.9668 13.8492 22.9668 14.0566C22.9668 14.2639 22.7993 14.4316 22.5918 14.4316Z" fill="#666666"/>
<path d="M3.8418 13.3066C3.63434 13.3066 3.4668 13.1389 3.4668 12.9316C3.4668 11.8976 4.30762 11.0566 5.34143 11.0566C5.54871 11.0566 5.71643 11.2242 5.71643 11.4316C5.71643 11.6389 5.54871 11.8066 5.34143 11.8066C4.72162 11.8066 4.2168 12.3113 4.2168 12.9316C4.2168 13.1389 4.04907 13.3066 3.8418 13.3066Z" fill="#666666"/>
<path d="M7.59143 13.3066C7.38397 13.3066 7.21643 13.1389 7.21643 12.9316C7.21643 12.3113 6.71161 11.8066 6.0918 11.8066C5.88452 11.8066 5.7168 11.6389 5.7168 11.4316C5.7168 11.2242 5.88452 11.0566 6.0918 11.0566C7.12561 11.0566 7.96643 11.8976 7.96643 12.9316C7.96643 13.1389 7.79889 13.3066 7.59143 13.3066Z" fill="#666666"/>
<path d="M4.2168 12.3148C4.00934 12.3148 3.8418 12.147 3.8418 11.9398V9.93164C3.8418 9.72418 4.00934 9.55664 4.2168 9.55664C4.42407 9.55664 4.5918 9.72418 4.5918 9.93164V11.9398C4.5918 12.147 4.42407 12.3148 4.2168 12.3148Z" fill="#666666"/>
<path d="M7.21484 12.3148C7.00739 12.3148 6.83984 12.147 6.83984 11.9398V9.93164C6.83984 9.72418 7.00739 9.55664 7.21484 9.55664C7.42212 9.55664 7.58984 9.72418 7.58984 9.93164V11.9398C7.58984 12.147 7.42212 12.3148 7.21484 12.3148Z" fill="#666666"/>
<path d="M4.9668 10.6824C4.75934 10.6824 4.5918 10.5146 4.5918 10.3074V9.18164C4.5918 8.97418 4.75934 8.80664 4.9668 8.80664C5.17426 8.80664 5.3418 8.97418 5.3418 9.18164V10.3074C5.3418 10.5146 5.17426 10.6824 4.9668 10.6824Z" fill="#666666"/>
<path d="M6.4668 9.55664H4.9668C4.75934 9.55664 4.5918 9.38892 4.5918 9.18164C4.5918 8.97418 4.75934 8.80664 4.9668 8.80664H6.4668C6.67426 8.80664 6.8418 8.97418 6.8418 9.18164C6.8418 9.38892 6.67426 9.55664 6.4668 9.55664Z" fill="#666666"/>
<path d="M6.4668 10.6824C6.25934 10.6824 6.0918 10.5146 6.0918 10.3074V9.18164C6.0918 8.97418 6.25934 8.80664 6.4668 8.80664C6.67426 8.80664 6.8418 8.97418 6.8418 9.18164V10.3074C6.8418 10.5146 6.67426 10.6824 6.4668 10.6824Z" fill="#666666"/>
<path d="M4.96753 10.3066H4.2168C4.00934 10.3066 3.8418 10.1389 3.8418 9.93164C3.8418 9.72418 4.00934 9.55664 4.2168 9.55664H4.96753C5.17499 9.55664 5.34253 9.72418 5.34253 9.93164C5.34253 10.1389 5.17499 10.3066 4.96753 10.3066Z" fill="#666666"/>
<path d="M7.21533 10.3066H6.4668C6.25934 10.3066 6.0918 10.1389 6.0918 9.93164C6.0918 9.72418 6.25934 9.55664 6.4668 9.55664H7.21533C7.42261 9.55664 7.59033 9.72418 7.59033 9.93164C7.59033 10.1389 7.42261 10.3066 7.21533 10.3066Z" fill="#666666"/>
<path d="M6.09131 11.8066H5.33984C5.13239 11.8066 4.96484 11.6389 4.96484 11.4316C4.96484 11.2242 5.13239 11.0566 5.33984 11.0566H6.09131C6.29877 11.0566 6.46631 11.2242 6.46631 11.4316C6.46631 11.6389 6.29877 11.8066 6.09131 11.8066Z" fill="#666666"/>
<path d="M8.7168 13.3066C8.50934 13.3066 8.3418 13.1389 8.3418 12.9316C8.3418 11.8976 9.18262 11.0566 10.2164 11.0566C10.4237 11.0566 10.5914 11.2242 10.5914 11.4316C10.5914 11.6389 10.4237 11.8066 10.2164 11.8066C9.59662 11.8066 9.0918 12.3113 9.0918 12.9316C9.0918 13.1389 8.92407 13.3066 8.7168 13.3066Z" fill="#666666"/>
<path d="M12.4664 13.3066C12.259 13.3066 12.0914 13.1389 12.0914 12.9316C12.0914 12.3113 11.5866 11.8066 10.9668 11.8066C10.7595 11.8066 10.5918 11.6389 10.5918 11.4316C10.5918 11.2242 10.7595 11.0566 10.9668 11.0566C12.0006 11.0566 12.8414 11.8976 12.8414 12.9316C12.8414 13.1389 12.6739 13.3066 12.4664 13.3066Z" fill="#666666"/>
<path d="M9.0918 12.3148C8.88434 12.3148 8.7168 12.147 8.7168 11.9398V9.93164C8.7168 9.72418 8.88434 9.55664 9.0918 9.55664C9.29907 9.55664 9.4668 9.72418 9.4668 9.93164V11.9398C9.4668 12.147 9.29907 12.3148 9.0918 12.3148Z" fill="#666666"/>
<path d="M12.0898 12.3148C11.8824 12.3148 11.7148 12.147 11.7148 11.9398V9.93164C11.7148 9.72418 11.8824 9.55664 12.0898 9.55664C12.2971 9.55664 12.4648 9.72418 12.4648 9.93164V11.9398C12.4648 12.147 12.2971 12.3148 12.0898 12.3148Z" fill="#666666"/>
<path d="M9.8418 10.6824C9.63434 10.6824 9.4668 10.5146 9.4668 10.3074V9.18164C9.4668 8.97418 9.63434 8.80664 9.8418 8.80664C10.0493 8.80664 10.2168 8.97418 10.2168 9.18164V10.3074C10.2168 10.5146 10.0493 10.6824 9.8418 10.6824Z" fill="#666666"/>
<path d="M11.3418 9.55664H9.8418C9.63434 9.55664 9.4668 9.38892 9.4668 9.18164C9.4668 8.97418 9.63434 8.80664 9.8418 8.80664H11.3418C11.5493 8.80664 11.7168 8.97418 11.7168 9.18164C11.7168 9.38892 11.5493 9.55664 11.3418 9.55664Z" fill="#666666"/>
<path d="M11.3418 10.6824C11.1343 10.6824 10.9668 10.5146 10.9668 10.3074V9.18164C10.9668 8.97418 11.1343 8.80664 11.3418 8.80664C11.5493 8.80664 11.7168 8.97418 11.7168 9.18164V10.3074C11.7168 10.5146 11.5493 10.6824 11.3418 10.6824Z" fill="#666666"/>
<path d="M9.84253 10.3066H9.0918C8.88434 10.3066 8.7168 10.1389 8.7168 9.93164C8.7168 9.72418 8.88434 9.55664 9.0918 9.55664H9.84253C10.05 9.55664 10.2175 9.72418 10.2175 9.93164C10.2175 10.1389 10.05 10.3066 9.84253 10.3066Z" fill="#666666"/>
<path d="M12.0903 10.3066H11.3418C11.1343 10.3066 10.9668 10.1389 10.9668 9.93164C10.9668 9.72418 11.1343 9.55664 11.3418 9.55664H12.0903C12.2976 9.55664 12.4653 9.72418 12.4653 9.93164C12.4653 10.1389 12.2976 10.3066 12.0903 10.3066Z" fill="#666666"/>
<path d="M10.9663 11.8066H10.2148C10.0074 11.8066 9.83984 11.6389 9.83984 11.4316C9.83984 11.2242 10.0074 11.0566 10.2148 11.0566H10.9663C11.1738 11.0566 11.3413 11.2242 11.3413 11.4316C11.3413 11.6389 11.1738 11.8066 10.9663 11.8066Z" fill="#666666"/>
<path d="M12.4746 18.9324C12.2672 18.9324 12.0996 18.7646 12.0996 18.5574C12.0996 17.9366 12.6048 17.4316 13.2253 17.4316C13.4328 17.4316 13.6003 17.5992 13.6003 17.8066C13.6003 18.0139 13.4328 18.1816 13.2253 18.1816C13.0181 18.1816 12.8496 18.3499 12.8496 18.5574C12.8496 18.7646 12.6817 18.9324 12.4746 18.9324Z" fill="#666666"/>
<path d="M16.2266 18.9324C16.0193 18.9324 15.8516 18.7646 15.8516 18.5574C15.8516 18.3503 15.6837 18.1824 15.4766 18.1824C15.2693 18.1824 15.1016 18.0146 15.1016 17.8074C15.1016 17.5999 15.2693 17.4324 15.4766 17.4324C16.0969 17.4324 16.6016 17.937 16.6016 18.5574C16.6016 18.7646 16.434 18.9324 16.2266 18.9324Z" fill="#666666"/>
<path d="M16.2257 19.6831H12.4746C12.2672 19.6831 12.0996 19.5156 12.0996 19.3081C12.0996 19.1006 12.2672 18.9331 12.4746 18.9331H16.2261C16.4335 18.9331 16.6011 19.1006 16.6011 19.3081C16.6011 19.5156 16.4332 19.6831 16.2257 19.6831Z" fill="#666666"/>
<path d="M15.5061 18.1816H13.1953C12.988 18.1816 12.8203 18.0139 12.8203 17.8066C12.8203 17.5992 12.988 17.4316 13.1953 17.4316H15.5061C15.7136 17.4316 15.8811 17.5992 15.8811 17.8066C15.8811 18.0139 15.7136 18.1816 15.5061 18.1816Z" fill="#666666"/>
<path d="M13.2246 18.1816C13.0172 18.1816 12.8496 18.0139 12.8496 17.8066V15.5574C12.8496 15.3499 13.0172 15.1824 13.2246 15.1824C13.4321 15.1824 13.5996 15.3499 13.5996 15.5574V17.8066C13.5996 18.0139 13.4321 18.1816 13.2246 18.1816Z" fill="#666666"/>
<path d="M15.4766 18.1824C15.2693 18.1824 15.1016 18.0146 15.1016 17.8074V15.5574C15.1016 15.3499 15.2693 15.1824 15.4766 15.1824C15.684 15.1824 15.8516 15.3499 15.8516 15.5574V17.8074C15.8516 18.0146 15.684 18.1824 15.4766 18.1824Z" fill="#666666"/>
<path d="M12.4746 19.6831C12.2672 19.6831 12.0996 19.5156 12.0996 19.3081V18.5574C12.0996 18.3499 12.2672 18.1824 12.4746 18.1824C12.6821 18.1824 12.8496 18.3499 12.8496 18.5574V19.3081C12.8496 19.5156 12.6817 19.6831 12.4746 19.6831Z" fill="#666666"/>
<path d="M16.2266 19.6831C16.0193 19.6831 15.8516 19.5156 15.8516 19.3081V18.5574C15.8516 18.3499 16.0193 18.1824 16.2266 18.1824C16.434 18.1824 16.6016 18.3499 16.6016 18.5574V19.3081C16.6016 19.5156 16.434 19.6831 16.2266 19.6831Z" fill="#666666"/>
<path d="M15.4761 15.9324H13.2246C13.0172 15.9324 12.8496 15.7646 12.8496 15.5574C12.8496 15.3499 13.0172 15.1824 13.2246 15.1824H15.4761C15.6835 15.1824 15.8511 15.3499 15.8511 15.5574C15.8511 15.7646 15.6835 15.9324 15.4761 15.9324Z" fill="#666666"/>
<path d="M15.8507 17.0574H12.8496C12.6422 17.0574 12.4746 16.8896 12.4746 16.6824C12.4746 16.4749 12.6422 16.3074 12.8496 16.3074H15.8507C16.0582 16.3074 16.2257 16.4749 16.2257 16.6824C16.2257 16.8896 16.0582 17.0574 15.8507 17.0574Z" fill="#666666"/>
<path d="M17.3496 18.9324C17.1422 18.9324 16.9746 18.7646 16.9746 18.5574C16.9746 17.9366 17.4798 17.4316 18.1003 17.4316C18.3078 17.4316 18.4753 17.5992 18.4753 17.8066C18.4753 18.0139 18.3078 18.1816 18.1003 18.1816C17.8931 18.1816 17.7246 18.3499 17.7246 18.5574C17.7246 18.7646 17.5567 18.9324 17.3496 18.9324Z" fill="#666666"/>
<path d="M21.1016 18.9324C20.8943 18.9324 20.7266 18.7646 20.7266 18.5574C20.7266 18.3503 20.5587 18.1824 20.3516 18.1824C20.1443 18.1824 19.9766 18.0146 19.9766 17.8074C19.9766 17.5999 20.1443 17.4324 20.3516 17.4324C20.9719 17.4324 21.4766 17.937 21.4766 18.5574C21.4766 18.7646 21.309 18.9324 21.1016 18.9324Z" fill="#666666"/>
<path d="M21.1007 19.6831H17.3496C17.1422 19.6831 16.9746 19.5156 16.9746 19.3081C16.9746 19.1006 17.1422 18.9331 17.3496 18.9331H21.1011C21.3085 18.9331 21.4761 19.1006 21.4761 19.3081C21.4761 19.5156 21.3082 19.6831 21.1007 19.6831Z" fill="#666666"/>
<path d="M20.3811 18.1816H18.0703C17.863 18.1816 17.6953 18.0139 17.6953 17.8066C17.6953 17.5992 17.863 17.4316 18.0703 17.4316H20.3811C20.5886 17.4316 20.7561 17.5992 20.7561 17.8066C20.7561 18.0139 20.5886 18.1816 20.3811 18.1816Z" fill="#666666"/>
<path d="M18.0996 18.1816C17.8922 18.1816 17.7246 18.0139 17.7246 17.8066V15.5574C17.7246 15.3499 17.8922 15.1824 18.0996 15.1824C18.3071 15.1824 18.4746 15.3499 18.4746 15.5574V17.8066C18.4746 18.0139 18.3071 18.1816 18.0996 18.1816Z" fill="#666666"/>
<path d="M20.3516 18.1824C20.1443 18.1824 19.9766 18.0146 19.9766 17.8074V15.5574C19.9766 15.3499 20.1443 15.1824 20.3516 15.1824C20.559 15.1824 20.7266 15.3499 20.7266 15.5574V17.8074C20.7266 18.0146 20.559 18.1824 20.3516 18.1824Z" fill="#666666"/>
<path d="M17.3496 19.6831C17.1422 19.6831 16.9746 19.5156 16.9746 19.3081V18.5574C16.9746 18.3499 17.1422 18.1824 17.3496 18.1824C17.5571 18.1824 17.7246 18.3499 17.7246 18.5574V19.3081C17.7246 19.5156 17.5567 19.6831 17.3496 19.6831Z" fill="#666666"/>
<path d="M21.1016 19.6831C20.8943 19.6831 20.7266 19.5156 20.7266 19.3081V18.5574C20.7266 18.3499 20.8943 18.1824 21.1016 18.1824C21.309 18.1824 21.4766 18.3499 21.4766 18.5574V19.3081C21.4766 19.5156 21.309 19.6831 21.1016 19.6831Z" fill="#666666"/>
<path d="M20.3511 15.9324H18.0996C17.8922 15.9324 17.7246 15.7646 17.7246 15.5574C17.7246 15.3499 17.8922 15.1824 18.0996 15.1824H20.3511C20.5585 15.1824 20.7261 15.3499 20.7261 15.5574C20.7261 15.7646 20.5585 15.9324 20.3511 15.9324Z" fill="#666666"/>
<path d="M20.7257 17.0574H17.7246C17.5172 17.0574 17.3496 16.8896 17.3496 16.6824C17.3496 16.4749 17.5172 16.3074 17.7246 16.3074H20.7257C20.9332 16.3074 21.1007 16.4749 21.1007 16.6824C21.1007 16.8896 20.9332 17.0574 20.7257 17.0574Z" fill="#666666"/>
</g>
<defs>
<clipPath id="clip0_6731_379">
<rect width="24" height="24" fill="white" transform="translate(0.466797 0.738037)"/>
</clipPath>
</defs>
</svg>
