<svg width="97" height="42" viewBox="0 0 97 42" fill="none" xmlns="http://www.w3.org/2000/svg">
<g clip-path="url(#clip0_6731_191)">
<path d="M7.13664 16.5457C7.13664 15.4987 7.9958 15.0958 9.41906 15.0958C11.4595 15.0958 14.037 15.7135 16.0775 16.8143V10.5045C13.8491 9.61857 11.6475 9.26951 9.41906 9.26951C3.96844 9.26951 0.34375 12.1156 0.34375 16.8681C0.34375 24.2784 10.5465 23.0971 10.5465 26.2923C10.5465 27.5272 9.47268 27.93 7.969 27.93C5.74057 27.93 2.89443 27.0171 0.639011 25.782V32.1722C3.13608 33.2462 5.65996 33.7025 7.969 33.7025C13.5537 33.7025 17.3932 30.9372 17.3932 26.1311C17.3664 18.13 7.13664 19.5529 7.13664 16.5457ZM25.2869 3.89968L18.7356 5.29575L18.7088 26.8022C18.7088 30.7762 21.6892 33.7025 25.6629 33.7025C27.8646 33.7025 29.4755 33.2999 30.3614 32.8166V27.3661C29.5025 27.7152 25.2601 28.9502 25.2601 24.9765V15.4449H30.3614V9.72599H25.2601L25.2869 3.89968ZM38.7118 11.7128L38.2821 9.72599H32.4826V33.2193H39.1951V17.2976C40.779 15.2302 43.4641 15.6061 44.2965 15.9014V9.72599C43.4373 9.40373 40.2959 8.81302 38.7118 11.7128ZM45.9342 9.72599H52.6735V33.2193H45.9342V9.72599ZM45.9342 7.6854L52.6735 6.23553V0.785095L45.9342 2.20816V7.68522V7.6854ZM66.6889 9.26951C64.0576 9.26951 62.3661 10.5045 61.4265 11.3639L61.0773 9.69918H55.1705V41.0055L61.8828 39.5827L61.9098 31.9842C62.8764 32.6823 64.2993 33.6757 66.6621 33.6757C71.4682 33.6757 75.8447 29.8094 75.8447 21.2982C75.8179 13.5117 71.3876 9.26951 66.6889 9.26951ZM65.078 27.7688C63.4939 27.7688 62.554 27.2051 61.9098 26.507L61.8828 16.5457C62.581 15.7671 63.5475 15.2302 65.078 15.2302C67.5213 15.2302 69.2128 17.9688 69.2128 21.486C69.2128 25.0839 67.5481 27.7688 65.078 27.7688ZM97.0021 21.5666C97.0021 14.6931 93.6727 9.26951 87.3094 9.26951C80.919 9.26951 77.0527 14.6933 77.0527 21.513C77.0527 29.5946 81.6174 33.6757 88.1684 33.6757C91.3636 33.6757 93.7801 32.9508 95.6058 31.9306V26.5606C93.7803 27.4736 91.6859 28.0375 89.0278 28.0375C86.4233 28.0375 84.1142 27.1245 83.819 23.9563H96.9485C96.9485 23.607 97.0021 22.211 97.0021 21.5666ZM83.7384 19.016C83.7384 15.982 85.5911 14.7199 87.2826 14.7199C88.9203 14.7199 90.6657 15.982 90.6657 19.016H83.7384Z" fill="#154444" fill-opacity="0.86"/>
</g>
<defs>
<clipPath id="clip0_6731_191">
<rect width="96.6583" height="40.4032" fill="white" transform="translate(0.34375 0.784424)"/>
</clipPath>
</defs>
</svg>
