<svg width="144" height="24" viewBox="0 0 144 24" fill="none" xmlns="http://www.w3.org/2000/svg">
<path d="M-0.0079999 18.4663V1.66631H7.624C9.448 1.66631 11.056 2.01831 12.448 2.72231C13.84 3.41031 14.928 4.37831 15.712 5.62631C16.496 6.87431 16.888 8.35431 16.888 10.0663C16.888 11.7623 16.496 13.2423 15.712 14.5063C14.928 15.7543 13.84 16.7303 12.448 17.4343C11.056 18.1223 9.448 18.4663 7.624 18.4663H-0.0079999ZM3.88 15.2743H7.432C8.552 15.2743 9.52 15.0663 10.336 14.6503C11.168 14.2183 11.808 13.6103 12.256 12.8263C12.72 12.0423 12.952 11.1223 12.952 10.0663C12.952 8.99431 12.72 8.07431 12.256 7.30631C11.808 6.52231 11.168 5.92231 10.336 5.50631C9.52 5.07431 8.552 4.85831 7.432 4.85831H3.88V15.2743ZM25.0041 18.6583C23.9321 18.6583 22.9721 18.4503 22.1241 18.0343C21.2921 17.6183 20.6441 16.9863 20.1801 16.1383C19.7161 15.2743 19.4841 14.1783 19.4841 12.8503V5.55431H23.2281V12.2983C23.2281 13.3703 23.4521 14.1623 23.9001 14.6743C24.3641 15.1703 25.0121 15.4183 25.8441 15.4183C26.4201 15.4183 26.9321 15.2983 27.3801 15.0583C27.8281 14.8023 28.1801 14.4183 28.4361 13.9063C28.6921 13.3783 28.8201 12.7223 28.8201 11.9383V5.55431H32.5641V18.4663H29.0121V14.9143L29.6601 15.9463C29.2281 16.8423 28.5881 17.5223 27.7401 17.9863C26.9081 18.4343 25.9961 18.6583 25.0041 18.6583ZM41.5767 18.6583C40.3607 18.6583 39.2647 18.3863 38.2887 17.8423C37.3127 17.2823 36.5367 16.5063 35.9607 15.5143C35.4007 14.5223 35.1207 13.3543 35.1207 12.0103C35.1207 10.6503 35.4007 9.47431 35.9607 8.48231C36.5367 7.49031 37.3127 6.72231 38.2887 6.17831C39.2647 5.63431 40.3607 5.36231 41.5767 5.36231C42.6647 5.36231 43.6167 5.60231 44.4327 6.08231C45.2487 6.56231 45.8807 7.29031 46.3287 8.26631C46.7767 9.24231 47.0007 10.4903 47.0007 12.0103C47.0007 13.5143 46.7847 14.7623 46.3527 15.7543C45.9207 16.7303 45.2967 17.4583 44.4807 17.9383C43.6807 18.4183 42.7127 18.6583 41.5767 18.6583ZM42.2247 15.5863C42.8327 15.5863 43.3847 15.4423 43.8807 15.1543C44.3767 14.8663 44.7687 14.4583 45.0567 13.9303C45.3607 13.3863 45.5127 12.7463 45.5127 12.0103C45.5127 11.2583 45.3607 10.6183 45.0567 10.0903C44.7687 9.56231 44.3767 9.15431 43.8807 8.86631C43.3847 8.57831 42.8327 8.43431 42.2247 8.43431C41.6007 8.43431 41.0407 8.57831 40.5447 8.86631C40.0487 9.15431 39.6487 9.56231 39.3447 10.0903C39.0567 10.6183 38.9127 11.2583 38.9127 12.0103C38.9127 12.7463 39.0567 13.3863 39.3447 13.9303C39.6487 14.4583 40.0487 14.8663 40.5447 15.1543C41.0407 15.4423 41.6007 15.5863 42.2247 15.5863ZM45.6087 18.4663V15.8263L45.6807 11.9863L45.4407 8.17031V0.658308H49.1847V18.4663H45.6087ZM59.0579 18.6583C57.5859 18.6583 56.2899 18.3703 55.1699 17.7943C54.0659 17.2183 53.2099 16.4343 52.6019 15.4423C51.9939 14.4343 51.6899 13.2903 51.6899 12.0103C51.6899 10.7143 51.9859 9.57031 52.5779 8.57831C53.1859 7.57031 54.0099 6.78631 55.0499 6.22631C56.0899 5.65031 57.2659 5.36231 58.5779 5.36231C59.8419 5.36231 60.9779 5.63431 61.9859 6.17831C63.0099 6.70631 63.8179 7.47431 64.4099 8.48231C65.0019 9.47431 65.2979 10.6663 65.2979 12.0583C65.2979 12.2023 65.2899 12.3703 65.2739 12.5623C65.2579 12.7383 65.2419 12.9063 65.2259 13.0663H54.7379V10.8823H63.2579L61.8179 11.5303C61.8179 10.8583 61.6819 10.2743 61.4099 9.77831C61.1379 9.28231 60.7619 8.89831 60.2819 8.62631C59.8019 8.33831 59.2419 8.19431 58.6019 8.19431C57.9619 8.19431 57.3939 8.33831 56.8979 8.62631C56.4179 8.89831 56.0419 9.29031 55.7699 9.80231C55.4979 10.2983 55.3619 10.8903 55.3619 11.5783V12.1543C55.3619 12.8583 55.5139 13.4823 55.8179 14.0263C56.1379 14.5543 56.5779 14.9623 57.1379 15.2503C57.7139 15.5223 58.3859 15.6583 59.1539 15.6583C59.8419 15.6583 60.4419 15.5543 60.9539 15.3463C61.4819 15.1383 61.9619 14.8263 62.3939 14.4103L64.3859 16.5703C63.7939 17.2423 63.0499 17.7623 62.1539 18.1303C61.2579 18.4823 60.2259 18.6583 59.0579 18.6583ZM73.5745 18.7543C72.2305 18.7543 70.9425 18.5783 69.7105 18.2263C68.4785 17.8583 67.4865 17.3863 66.7345 16.8103L68.0545 13.8823C68.7745 14.3943 69.6225 14.8183 70.5985 15.1543C71.5905 15.4743 72.5905 15.6343 73.5985 15.6343C74.3665 15.6343 74.9825 15.5623 75.4465 15.4183C75.9265 15.2583 76.2785 15.0423 76.5025 14.7703C76.7265 14.4983 76.8385 14.1863 76.8385 13.8343C76.8385 13.3863 76.6625 13.0343 76.3105 12.7783C75.9585 12.5063 75.4945 12.2903 74.9185 12.1303C74.3425 11.9543 73.7025 11.7943 72.9985 11.6503C72.3105 11.4903 71.6145 11.2983 70.9105 11.0743C70.2225 10.8503 69.5905 10.5623 69.0145 10.2103C68.4385 9.85831 67.9665 9.39431 67.5985 8.81831C67.2465 8.24231 67.0705 7.50631 67.0705 6.61031C67.0705 5.65031 67.3265 4.77831 67.8385 3.99431C68.3665 3.19431 69.1505 2.56231 70.1905 2.09831C71.2465 1.61831 72.5665 1.37831 74.1505 1.37831C75.2065 1.37831 76.2465 1.50631 77.2705 1.76231C78.2945 2.00231 79.1985 2.37031 79.9825 2.86631L78.7825 5.81831C77.9985 5.37031 77.2145 5.04231 76.4305 4.83431C75.6465 4.61031 74.8785 4.49831 74.1265 4.49831C73.3745 4.49831 72.7585 4.58631 72.2785 4.76231C71.7985 4.93831 71.4545 5.17031 71.2465 5.45831C71.0385 5.73031 70.9345 6.05031 70.9345 6.41831C70.9345 6.85031 71.1105 7.20231 71.4625 7.47431C71.8145 7.73031 72.2785 7.93831 72.8545 8.09831C73.4305 8.25831 74.0625 8.41831 74.7505 8.57831C75.4545 8.73831 76.1505 8.92231 76.8385 9.13031C77.5425 9.33831 78.1825 9.61831 78.7585 9.97031C79.3345 10.3223 79.7985 10.7863 80.1505 11.3623C80.5185 11.9383 80.7025 12.6663 80.7025 13.5463C80.7025 14.4903 80.4385 15.3543 79.9105 16.1383C79.3825 16.9223 78.5905 17.5543 77.5345 18.0343C76.4945 18.5143 75.1745 18.7543 73.5745 18.7543ZM90.9432 5.36231C91.9672 5.36231 92.8792 5.57031 93.6792 5.98631C94.4952 6.38631 95.1352 7.01031 95.5992 7.85831C96.0632 8.69031 96.2952 9.76231 96.2952 11.0743V18.4663H92.5512V11.6503C92.5512 10.6103 92.3192 9.84231 91.8552 9.34631C91.4072 8.85031 90.7672 8.60231 89.9352 8.60231C89.3432 8.60231 88.8072 8.73031 88.3272 8.98631C87.8632 9.22631 87.4952 9.60231 87.2232 10.1143C86.9672 10.6263 86.8392 11.2823 86.8392 12.0823V18.4663H83.0952V0.658308H86.8392V9.13031L85.9992 8.05031C86.4632 7.18631 87.1272 6.52231 87.9912 6.05831C88.8552 5.59431 89.8392 5.36231 90.9432 5.36231ZM107.609 18.4663V15.9463L107.369 15.3943V10.8823C107.369 10.0823 107.121 9.45831 106.625 9.01031C106.145 8.56231 105.401 8.33831 104.393 8.33831C103.705 8.33831 103.025 8.45031 102.353 8.67431C101.697 8.88231 101.137 9.17031 100.673 9.53831L99.3289 6.92231C100.033 6.42631 100.881 6.04231 101.873 5.77031C102.865 5.49831 103.873 5.36231 104.897 5.36231C106.865 5.36231 108.393 5.82631 109.481 6.75431C110.569 7.68231 111.113 9.13031 111.113 11.0983V18.4663H107.609ZM103.673 18.6583C102.665 18.6583 101.801 18.4903 101.081 18.1543C100.361 17.8023 99.8089 17.3303 99.4249 16.7383C99.0409 16.1463 98.8489 15.4823 98.8489 14.7463C98.8489 13.9783 99.0329 13.3063 99.4009 12.7303C99.7849 12.1543 100.385 11.7063 101.201 11.3863C102.017 11.0503 103.081 10.8823 104.393 10.8823H107.825V13.0663H104.801C103.921 13.0663 103.313 13.2103 102.977 13.4983C102.657 13.7863 102.497 14.1463 102.497 14.5783C102.497 15.0583 102.681 15.4423 103.049 15.7303C103.433 16.0023 103.953 16.1383 104.609 16.1383C105.233 16.1383 105.793 15.9943 106.289 15.7063C106.785 15.4023 107.145 14.9623 107.369 14.3863L107.945 16.1143C107.673 16.9463 107.177 17.5783 106.457 18.0103C105.737 18.4423 104.809 18.6583 103.673 18.6583ZM122.133 18.6583C121.045 18.6583 120.093 18.4183 119.277 17.9383C118.461 17.4583 117.821 16.7303 117.357 15.7543C116.909 14.7623 116.685 13.5143 116.685 12.0103C116.685 10.4903 116.901 9.24231 117.333 8.26631C117.765 7.29031 118.389 6.56231 119.205 6.08231C120.021 5.60231 120.997 5.36231 122.133 5.36231C123.349 5.36231 124.437 5.64231 125.397 6.20231C126.373 6.74631 127.141 7.51431 127.701 8.50631C128.277 9.49831 128.565 10.6663 128.565 12.0103C128.565 13.3703 128.277 14.5463 127.701 15.5383C127.141 16.5303 126.373 17.2983 125.397 17.8423C124.437 18.3863 123.349 18.6583 122.133 18.6583ZM114.501 23.1223V5.55431H118.077V8.19431L118.005 12.0343L118.245 15.8503V23.1223H114.501ZM121.485 15.5863C122.109 15.5863 122.661 15.4423 123.141 15.1543C123.637 14.8663 124.029 14.4583 124.317 13.9303C124.621 13.3863 124.773 12.7463 124.773 12.0103C124.773 11.2583 124.621 10.6183 124.317 10.0903C124.029 9.56231 123.637 9.15431 123.141 8.86631C122.661 8.57831 122.109 8.43431 121.485 8.43431C120.861 8.43431 120.301 8.57831 119.805 8.86631C119.309 9.15431 118.917 9.56231 118.629 10.0903C118.341 10.6183 118.197 11.2583 118.197 12.0103C118.197 12.7463 118.341 13.3863 118.629 13.9303C118.917 14.4583 119.309 14.8663 119.805 15.1543C120.301 15.4423 120.861 15.5863 121.485 15.5863ZM137.48 18.6583C136.008 18.6583 134.712 18.3703 133.592 17.7943C132.488 17.2183 131.632 16.4343 131.024 15.4423C130.416 14.4343 130.112 13.2903 130.112 12.0103C130.112 10.7143 130.408 9.57031 131 8.57831C131.608 7.57031 132.432 6.78631 133.472 6.22631C134.512 5.65031 135.688 5.36231 137 5.36231C138.264 5.36231 139.4 5.63431 140.408 6.17831C141.432 6.70631 142.24 7.47431 142.832 8.48231C143.424 9.47431 143.72 10.6663 143.72 12.0583C143.72 12.2023 143.712 12.3703 143.696 12.5623C143.68 12.7383 143.664 12.9063 143.648 13.0663H133.16V10.8823H141.68L140.24 11.5303C140.24 10.8583 140.104 10.2743 139.832 9.77831C139.56 9.28231 139.184 8.89831 138.704 8.62631C138.224 8.33831 137.664 8.19431 137.024 8.19431C136.384 8.19431 135.816 8.33831 135.32 8.62631C134.84 8.89831 134.464 9.29031 134.192 9.80231C133.92 10.2983 133.784 10.8903 133.784 11.5783V12.1543C133.784 12.8583 133.936 13.4823 134.24 14.0263C134.56 14.5543 135 14.9623 135.56 15.2503C136.136 15.5223 136.808 15.6583 137.576 15.6583C138.264 15.6583 138.864 15.5543 139.376 15.3463C139.904 15.1383 140.384 14.8263 140.816 14.4103L142.808 16.5703C142.216 17.2423 141.472 17.7623 140.576 18.1303C139.68 18.4823 138.648 18.6583 137.48 18.6583Z" fill="white"/>
</svg>
